<?xml version="1.0" encoding="utf-8"?>
<svg xmlns="http://www.w3.org/2000/svg" viewBox="144.3097 98.8388 105.9853 31.912" width="105.985px"
  height="31.912px">
  <defs>
    <clipPath id="clipPath94" clipPathUnits="userSpaceOnUse">
      <path id="path92" d="m 141.893,42.6387 h 10.396 V 32.2431 h -10.396 z" />
    </clipPath>
    <clipPath id="clipPath122" clipPathUnits="userSpaceOnUse">
      <path id="path120" d="m 143.017,41.5151 h 8.148 v -8.1484 h -8.148 z" />
    </clipPath>
    <clipPath id="clipPath174" clipPathUnits="userSpaceOnUse">
      <path id="path172" d="m 151.445,44.4861 h 10.396 V 34.0905 h -10.396 z" />
    </clipPath>
    <clipPath id="clipPath202" clipPathUnits="userSpaceOnUse">
      <path id="path200" d="m 152.569,43.3625 h 8.148 v -8.1484 h -8.148 z" />
    </clipPath>
  </defs>
  <g
    transform="matrix(1.3333330154418945, 0, 0, -1.3333330154418945, 167.18702082405798, 128.54010799858224)"
    id="g20">
    <path id="path22" style="fill:white;fill-opacity:1;fill-rule:nonzero;stroke:none"
      d="M 0,0 0.787,0.007 1.046,0.009 C 1.058,0.104 1.064,0.218 1.066,0.35 L 1.069,0.89 1.061,2.889 0.566,2.903 H 0.543 L -0.262,2.912 C -0.324,2.91 -0.396,2.908 -0.479,2.906 L -0.796,2.9 -0.805,2.546 -0.823,2.334 V 1.819 L -0.843,0.945 -0.846,0.317 C -0.844,0.193 -0.842,0.091 -0.84,0.009 Z m 0.404,-0.377 -1.474,0.015 c -0.023,0 -0.048,0.001 -0.075,0.003 l -0.076,0.005 -0.017,0.592 C -1.24,0.36 -1.242,0.477 -1.244,0.588 l 0.012,1.171 -0.006,0.238 c 0,0.128 0.004,0.247 0.011,0.357 0.004,0.064 0.006,0.129 0.006,0.195 v 0.276 c 0,0.034 0.002,0.062 0.006,0.081 L -1.488,2.9 -1.459,3.308 -0.715,3.296 c 0.135,-0.004 0.289,-0.004 0.459,0 0.14,0.004 0.236,0.008 0.291,0.012 L 1.436,3.287 1.45,2.9 V 1.328 1.3 L 1.447,-0.354 Z" />
  </g>
  <g
    transform="matrix(1.3333330154418945, 0, 0, -1.3333330154418945, 170.40568867645925, 124.16411213434911)"
    id="g24">
    <path id="path26" style="fill:white;fill-opacity:1;fill-rule:nonzero;stroke:none"
      d="M 0,0 H 0.424 C 0.531,0.004 0.659,0.004 0.808,0 L 1,-0.006 1.029,-0.671 1.043,-1.868 0.663,-1.874 0.648,-0.387 0.517,-0.39 c -0.1,-0.004 -0.184,-0.005 -0.249,-0.003 -0.198,0 -0.297,-0.002 -0.297,-0.005 z" />
  </g>
  <g
    transform="matrix(1.3333330154418945, 0, 0, -1.3333330154418945, 176.5750190740655, 124.15344115707559)"
    id="g28">
    <path id="path30" style="fill:white;fill-opacity:1;fill-rule:nonzero;stroke:none"
      d="M 0,0 C 0.104,0.002 0.207,-0.003 0.308,-0.015 L 0.331,-0.044 0.349,-0.715 C 0.35,-0.849 0.352,-0.97 0.354,-1.078 L 0.346,-2.022 V -2.2 L 0.331,-3.27 0.296,-3.661 -0.175,-3.649 h -0.61 C -0.903,-3.651 -0.998,-3.654 -1.07,-3.655 -1.153,-3.657 -1.204,-3.659 -1.224,-3.661 -1.243,-3.665 -1.276,-3.668 -1.322,-3.67 h -0.163 c -0.111,0.002 -0.25,0.006 -0.419,0.012 l -0.563,0.025 -0.024,0.465 -0.011,0.773 0.002,1.361 -0.014,1.046 h 0.416 L -2.086,-0.93 C -2.088,-0.994 -2.09,-1.099 -2.09,-1.244 l 0.006,-1.577 c 0.002,-0.206 10e-4,-0.352 -0.002,-0.437 l 0.572,-0.017 c 0.139,-0.002 0.259,-0.002 0.357,0 l 1.101,0.005 c -0.004,0.158 -0.006,0.361 -0.008,0.611 l 0.002,0.526 0.024,0.988 c 0,0.122 -0.002,0.268 -0.006,0.439 -0.002,0.058 -0.004,0.126 -0.006,0.203 l -0.006,0.169 c -0.066,-0.064 -0.14,-0.154 -0.223,-0.27 -0.023,-0.032 -0.056,-0.077 -0.099,-0.137 L -0.459,-0.857 C -0.514,-0.933 -0.601,-1.084 -0.721,-1.311 L -0.854,-1.566 C -0.872,-1.6 -0.89,-1.633 -0.907,-1.668 l -0.035,-0.073 -0.363,0.134 0.154,0.308 c 0.025,0.05 0.053,0.102 0.084,0.154 l 0.093,0.166 0.053,0.092 c 0.054,0.098 0.106,0.184 0.156,0.259 0.053,0.08 0.142,0.194 0.268,0.346 0.056,0.066 0.105,0.122 0.148,0.169 0.047,0.05 0.078,0.081 0.096,0.092 C -0.17,-0.009 -0.085,-0.002 0,0" />
  </g>
  <g
    transform="matrix(1.3333330154418945, 0, 0, -1.3333330154418945, 179.03768531634705, 130.71611252535513)"
    id="g32">
    <path id="path34" style="fill:white;fill-opacity:1;fill-rule:nonzero;stroke:none"
      d="m 0,0 c -0.006,-0.01 -0.03,-0.017 -0.072,-0.021 -0.033,-0.003 -0.077,-0.005 -0.131,-0.005 l -0.183,0.008 -0.027,2.511 0.012,0.565 c -0.006,0.079 -0.006,0.171 0,0.278 0.002,0.033 0.005,0.065 0.009,0.096 l 0.006,0.038 h 0.38 L 0.003,3.13 -0.008,2.737 C -0.014,2.569 -0.017,2.42 -0.017,2.29 Z m -0.436,4.929 0.154,-0.003 c 0.054,-0.002 0.11,-0.003 0.166,-0.003 L 0.573,4.917 c 0.18,0 0.332,0.001 0.456,0.003 0.124,0.004 0.26,0.007 0.407,0.009 H 2.177 L 2.208,3.801 2.194,2.421 c 0.004,-0.055 0.004,-0.149 0,-0.282 L 2.147,1.25 C 2.121,1.258 2.07,1.263 1.997,1.265 L 1.238,1.25 H 0.593 L 0.625,1.653 0.86,1.647 c 0.142,-0.001 0.265,-0.001 0.372,0 L 1.61,1.662 1.773,1.671 1.784,1.808 c 0.004,0.05 0.007,0.1 0.009,0.151 0.002,0.062 0.003,0.123 0.003,0.183 L 1.819,3.522 1.784,4.539 0.477,4.524 -0.459,4.521 Z" />
  </g>
  <g
    transform="matrix(1.3333330154418945, 0, 0, -1.3333330154418945, 183.25368772914226, 124.16411213434911)"
    id="g36">
    <path id="path38" style="fill:white;fill-opacity:1;fill-rule:nonzero;stroke:none"
      d="M 0,0 H 0.424 C 0.531,0.004 0.659,0.004 0.808,0 L 1,-0.006 1.029,-0.671 1.043,-1.868 0.663,-1.874 0.648,-0.387 0.518,-0.39 c -0.101,-0.004 -0.185,-0.005 -0.25,-0.003 -0.198,0 -0.297,-0.002 -0.297,-0.005 z" />
  </g>
  <g
    transform="matrix(1.3333330154418945, 0, 0, -1.3333330154418945, 185.92702693551837, 124.16411213434911)"
    id="g40">
    <path id="path42" style="fill:white;fill-opacity:1;fill-rule:nonzero;stroke:none"
      d="M 0,0 H 0.424 C 0.531,0.004 0.659,0.004 0.808,0 L 1,-0.006 1.029,-0.671 1.043,-1.868 0.663,-1.874 0.648,-0.387 0.517,-0.39 c -0.1,-0.004 -0.184,-0.005 -0.25,-0.003 -0.197,0 -0.296,-0.002 -0.296,-0.005 z" />
  </g>
  <g
    transform="matrix(1.3333330154418945, 0, 0, -1.3333330154418945, 188.60034579684728, 124.14544555351314)"
    id="g44">
    <path id="path46" style="fill:white;fill-opacity:1;fill-rule:nonzero;stroke:none"
      d="M 0,0 H 0.192 L 0.651,0.009 1.066,-0.021 1.09,-0.521 1.113,-2.618 1.151,-3.65 0.982,-3.661 C 0.955,-3.663 0.925,-3.665 0.892,-3.667 0.867,-3.669 0.841,-3.671 0.813,-3.673 L 0.732,-3.679 0.721,-2.72 c 0.002,0.064 0.003,0.168 0.003,0.314 l -0.009,2.005 c 0,0.002 -0.032,0.005 -0.096,0.011 -0.079,0.006 -0.162,0.006 -0.25,0 C 0.29,-0.394 0.2,-0.395 0.099,-0.393 l -0.128,0.003 z" />
  </g>
  <g
    transform="matrix(1.3333330154418945, 0, 0, -1.3333330154418945, 194.7656885651959, 129.01211309438077)"
    id="g48">
    <path id="path50" style="fill:white;fill-opacity:1;fill-rule:nonzero;stroke:none"
      d="m 0,0 c 0.044,0.002 -0.012,-0.001 -0.169,-0.011 l -0.252,-0.017 v 0.749 c 0.002,0.106 0.004,0.176 0.005,0.21 0.002,0.061 0.003,0.166 0.003,0.313 V 2.755 2.816 L -0.41,3.249 -0.732,3.261 C -0.82,3.269 -1.013,3.272 -1.313,3.272 L -2.528,3.261 -2.5,3.662 -1.961,3.65 c 0.123,-0.004 0.27,-0.004 0.438,-0.003 l 1.482,-0.011 0.015,-0.39 0.005,-2.214 z" />
  </g>
  <g
    transform="matrix(1.3333330154418945, 0, 0, -1.3333330154418945, 197.8923561140109, 126.80010800652964)"
    id="g52">
    <path id="path54" style="fill:white;fill-opacity:1;fill-rule:nonzero;stroke:none"
      d="m 0,0 c -0.08,-0.019 -0.218,-0.028 -0.416,-0.028 l -0.235,-0.006 c -0.102,-0.002 -0.177,-0.002 -0.224,0 l -0.333,0.012 -0.018,0.037 0.038,1.157 0.035,0.805 c 0.124,0.013 0.353,0.02 0.688,0.02 V 2.003 L 0.154,1.997 1.186,1.965 1.221,1.697 C 1.232,1.603 1.243,1.508 1.253,1.413 1.266,1.295 1.277,1.182 1.287,1.073 L 1.296,0.907 1.308,-0.465 1.293,-0.973 1.209,-1.676 -0.093,-1.679 h -0.032 l -0.322,0.003 c -0.099,0 -0.192,-0.002 -0.28,-0.006 -0.086,-0.004 -0.169,-0.005 -0.246,-0.005 l -0.288,0.005 0.023,0.381 c 0,0.011 0.053,0.011 0.16,0 h 1.941 l 0.026,0.177 c 0.02,0.144 0.029,0.275 0.029,0.395 v 1.45 c 0,0.196 -0.007,0.377 -0.023,0.544 L 0.857,1.596 0.442,1.607 c -0.2,0.01 -0.454,0.01 -0.762,0 -0.097,-0.002 -0.199,-0.002 -0.307,0 H -0.785 L -0.802,1.087 C -0.804,1.01 -0.806,0.953 -0.808,0.916 -0.815,0.648 -0.819,0.463 -0.819,0.358 l 0.613,-0.005 c 0.076,0.001 0.134,0.007 0.177,0.016 z" />
  </g>
  <g
    transform="matrix(1.3333330154418945, 0, 0, -1.3333330154418945, 200.91367700825504, 124.14544555351314)"
    id="g56">
    <path id="path58" style="fill:white;fill-opacity:1;fill-rule:nonzero;stroke:none"
      d="m 0,0 h 0.191 l 0.46,0.009 0.415,-0.03 0.024,-0.5 L 1.113,-2.618 1.15,-3.65 0.982,-3.661 C 0.955,-3.663 0.925,-3.665 0.892,-3.667 0.867,-3.669 0.841,-3.671 0.813,-3.673 L 0.732,-3.679 0.721,-2.72 c 0.002,0.064 0.003,0.168 0.003,0.314 l -0.009,2.005 c 0,0.002 -0.032,0.005 -0.096,0.011 -0.08,0.006 -0.163,0.006 -0.25,0 -0.079,-0.004 -0.17,-0.005 -0.27,-0.003 l -0.128,0.003 z" />
  </g>
  <g
    transform="matrix(1.3333330154418945, 0, 0, -1.3333330154418945, 205.30700685273044, 128.4881162303791)"
    id="g60">
    <path id="path62" style="fill:white;fill-opacity:1;fill-rule:nonzero;stroke:none"
      d="M 0,0 H 0.154 C 0.231,0 0.298,-0.002 0.352,-0.006 L 0.479,0 C 0.511,0.002 0.538,0.004 0.562,0.006 0.588,0.008 0.609,0.01 0.625,0.012 L 0.607,0.55 C 0.605,0.629 0.604,0.737 0.602,0.875 L 0.596,1.721 0.587,1.959 C 0.583,2.089 0.585,2.208 0.59,2.316 0.592,2.378 0.593,2.443 0.593,2.511 L 0.59,2.787 c 0,0.034 0.002,0.062 0.006,0.081 L 0.323,2.862 0.346,3.27 1.096,3.258 C 1.468,3.25 1.716,3.256 1.84,3.275 1.859,3.279 1.894,3.281 1.944,3.281 1.991,3.283 2.051,3.284 2.125,3.284 L 2.59,3.272 3.22,3.249 3.234,2.862 3.264,0.808 3.299,-0.393 2.88,-0.421 2.868,0.538 C 2.872,0.6 2.874,0.704 2.874,0.852 L 2.868,2.421 c -0.002,0.203 -0.002,0.347 0,0.43 L 2.375,2.865 H 2.362 L 1.543,2.874 C 1.481,2.872 1.407,2.87 1.322,2.868 L 1.006,2.862 1.009,2.659 C 1.009,2.547 1.004,2.435 0.994,2.322 L 1,2.014 V 0.619 C 1.006,0.43 1.012,0.281 1.018,0.175 L 1.029,-0.029 1.038,-0.363 0.937,-0.393 0.643,-0.409 0.387,-0.415 c -0.064,0 -0.142,0.002 -0.233,0.006 l -0.176,0.006 z" />
  </g>
  <g
    transform="matrix(1.3333330154418945, 0, 0, -1.3333330154418945, 210.98834094741326, 124.14544555351314)"
    id="g64">
    <path id="path66" style="fill:white;fill-opacity:1;fill-rule:nonzero;stroke:none"
      d="M 0,0 H 0.191 L 0.65,0.009 1.066,-0.021 1.09,-0.521 1.112,-2.618 1.15,-3.65 0.981,-3.661 C 0.955,-3.663 0.925,-3.665 0.892,-3.667 0.866,-3.669 0.841,-3.671 0.813,-3.673 L 0.732,-3.679 0.721,-2.72 c 0.002,0.064 0.003,0.168 0.003,0.314 l -0.009,2.005 c 0,0.002 -0.032,0.005 -0.096,0.011 -0.08,0.006 -0.163,0.006 -0.25,0 -0.08,-0.004 -0.17,-0.005 -0.27,-0.003 l -0.128,0.003 z" />
  </g>
  <g
    transform="matrix(1.3333330154418945, 0, 0, -1.3333330154418945, 213.91633911000096, 124.12944417386463)"
    id="g68">
    <path id="path70" style="fill:white;fill-opacity:1;fill-rule:nonzero;stroke:none"
      d="M 0,0 0.988,-0.003 2.232,-0.032 2.249,-0.113 C 2.263,-0.186 2.276,-0.259 2.29,-0.334 L 2.343,-0.646 2.392,-1.063 2.4,-1.793 V -2.441 L 2.386,-2.811 2.308,-3.679 0.712,-3.67 C 0.613,-3.67 0.521,-3.672 0.434,-3.673 0.346,-3.675 0.265,-3.677 0.189,-3.679 l -0.291,0.006 0.03,0.369 c 0,0.011 0.051,0.011 0.154,0 h 1.871 l 0.053,0.479 c 0.005,0.074 0.009,0.126 0.011,0.157 0.002,0.064 0.003,0.166 0.003,0.306 l -0.006,0.766 v 0.044 l -0.003,0.27 c 0.01,0.32 -0.024,0.613 -0.102,0.881 H 1.828 c -0.067,0 -0.132,0.002 -0.191,0.005 C 1.604,-0.392 1.528,-0.39 1.412,-0.39 L 0.076,-0.384 C 0.059,-0.386 0.041,-0.387 0.023,-0.387 L -0.022,-0.39 Z" />
  </g>
  <g
    transform="matrix(1.3333330154418945, 0, 0, -1.3333330154418945, 218.3563404928282, 124.16411213434911)"
    id="g72">
    <path id="path74" style="fill:white;fill-opacity:1;fill-rule:nonzero;stroke:none"
      d="M 0,0 H 0.425 C 0.531,0.004 0.659,0.004 0.808,0 L 1,-0.006 1.029,-0.671 1.044,-1.868 0.663,-1.874 0.648,-0.387 0.518,-0.39 c -0.101,-0.004 -0.185,-0.005 -0.25,-0.003 -0.198,0 -0.296,-0.002 -0.296,-0.005 z" />
  </g>
  <g
    transform="matrix(1.3333330154418945, 0, 0, -1.3333330154418945, 224.36301223780904, 129.01211309438077)"
    id="g76">
    <path id="path78" style="fill:white;fill-opacity:1;fill-rule:nonzero;stroke:none"
      d="m 0,0 c 0.044,0.002 -0.012,-0.001 -0.169,-0.011 l -0.253,-0.017 v 0.749 c 0.002,0.106 0.004,0.176 0.006,0.21 0.002,0.061 0.003,0.166 0.003,0.313 V 2.755 2.816 L -0.41,3.249 -0.732,3.261 C -0.82,3.269 -1.014,3.272 -1.313,3.272 L -2.528,3.261 -2.5,3.662 -1.962,3.65 c 0.124,-0.004 0.271,-0.004 0.439,-0.003 l 1.482,-0.011 0.015,-0.39 0.005,-2.214 z" />
  </g>
  <g
    transform="matrix(1.3333330154418945, 0, 0, -1.3333330154418945, 225.71900963586816, 124.12944417386463)"
    id="g80">
    <path id="path82" style="fill:white;fill-opacity:1;fill-rule:nonzero;stroke:none"
      d="m 0,0 1.561,-0.003 0.795,-0.029 0.024,-0.5 0.02,-1.824 0.036,-0.925 0.522,0.017 V -3.685 L 1.953,-3.688 H 1.936 L 0.77,-3.679 C 0.677,-3.679 0.587,-3.681 0.5,-3.685 0.413,-3.688 0.33,-3.69 0.253,-3.69 l -0.288,0.005 0.023,0.381 c 0,0.011 0.054,0.011 0.16,0 H 2.025 L 2.014,-2.731 C 2.01,-2.646 2.007,-2.529 2.005,-2.38 v 0.43 c 0.002,0.309 0.005,0.533 0.009,0.668 0,0.139 -0.002,0.288 -0.006,0.445 -0.006,0.201 -0.013,0.343 -0.021,0.424 l -0.421,0.012 c -0.035,0.004 -0.099,0.005 -0.194,0.005 l -1.401,-0.005 z" />
  </g>
  <g
    transform="matrix(1.3333330154418945, 0, 0, -1.3333330154418945, 226.25367747714338, 117.58144158463982)"
    id="g84">
    <path id="path86" style="fill:#425caf;fill-opacity:1;fill-rule:nonzero;stroke:none"
      d="M 0,0 C -1.205,-1.205 -3.16,-1.205 -4.365,0 -5.57,1.205 -5.57,3.159 -4.364,4.364 -3.159,5.57 -1.205,5.57 0,4.364 1.205,3.159 1.205,1.205 0,0 m -6.17,6.17 c -2.202,-2.202 -2.202,-5.773 0,-7.975 2.202,-2.202 5.773,-2.202 7.975,0 2.202,2.202 2.202,5.773 0,7.975 -2.202,2.202 -5.773,2.202 -7.975,0" />
  </g>
  <g id="g88"
    transform="matrix(1.3333330154418945, 0, 0, -1.3333330154418945, 27.223054763737302, 164.59210135624016)">
    <g id="g90" />
    <g id="g114">
      <g style="opacity:0.5" id="g112" clip-path="url(#clipPath94)">
        <g id="g98" transform="translate(149.2734,35.2584)">
          <path id="path96" style="fill:#425caf;fill-opacity:1;fill-rule:nonzero;stroke:none"
            d="m 0,0 c -0.474,-0.474 -1.063,-0.761 -1.678,-0.862 l 1.684,-2.154 c 0.654,0.275 1.266,0.679 1.799,1.211 0.532,0.533 0.936,1.145 1.211,1.799 L 0.862,1.678 C 0.762,1.063 0.474,0.474 0,0" />
        </g>
        <g id="g102" transform="translate(141.8936,39.6285)">
          <path id="path100" style="fill:#425caf;fill-opacity:1;fill-rule:nonzero;stroke:none"
            d="m 0,0 2.152,-1.684 c 0.102,0.616 0.389,1.205 0.864,1.678 0.473,0.475 1.063,0.762 1.677,0.863 L 3.01,3.01 C 2.355,2.735 1.743,2.332 1.21,1.8 0.678,1.268 0.274,0.654 0,0" />
        </g>
        <g id="g106" transform="translate(141.8936,35.2526)">
          <path id="path104" style="fill:#425caf;fill-opacity:1;fill-rule:nonzero;stroke:none"
            d="m 0,0 c 0.274,-0.654 0.678,-1.267 1.21,-1.799 0.533,-0.532 1.145,-0.936 1.8,-1.211 l 1.682,2.154 C 4.079,-0.756 3.488,-0.468 3.015,0.006 2.541,0.479 2.253,1.069 2.152,1.684 Z" />
        </g>
        <g id="g110" transform="translate(149.2793,42.6383)">
          <path id="path108" style="fill:#425caf;fill-opacity:1;fill-rule:nonzero;stroke:none"
            d="m 0,0 -1.684,-2.152 c 0.615,-0.102 1.205,-0.389 1.678,-0.864 0.474,-0.473 0.762,-1.063 0.862,-1.677 L 3.01,-3.01 C 2.735,-2.355 2.331,-1.742 1.799,-1.21 1.267,-0.678 0.654,-0.274 0,0" />
        </g>
      </g>
    </g>
  </g>
  <g id="g116"
    transform="matrix(1.3333330154418945, 0, 0, -1.3333330154418945, 27.223054763737302, 164.59210135624016)">
    <g id="g118" />
    <g id="g130">
      <g style="opacity:0.10000598" id="g128" clip-path="url(#clipPath122)">
        <g id="g126" transform="translate(149.2734,35.2584)">
          <path id="path124" style="fill:#425caf;fill-opacity:1;fill-rule:nonzero;stroke:none"
            d="M 0,0 C -1.205,-1.205 -3.16,-1.205 -4.365,0 -5.57,1.205 -5.57,3.159 -4.364,4.364 -3.159,5.57 -1.205,5.57 0,4.364 1.205,3.159 1.205,1.205 0,0 m -5.063,5.063 c -1.591,-1.59 -1.591,-4.17 0,-5.761 1.59,-1.591 4.17,-1.591 5.761,0 1.592,1.591 1.592,4.171 0,5.761 -1.591,1.591 -4.171,1.591 -5.761,0" />
        </g>
      </g>
    </g>
  </g>
  <g
    transform="matrix(1.3333330154418945, 0, 0, -1.3333330154418945, 144.42970203107689, 119.8347776359442)"
    id="g132">
    <g>
      <path id="path134" style="fill:#6bc7f1;fill-opacity:1;fill-rule:nonzero;stroke:none"
        d="m 0,0 c -0.06,0 -0.09,0.038 -0.09,0.113 l 0.045,15.544 c 0,0.06 0.03,0.09 0.09,0.09 h 2.761 c 0.06,0 0.113,-0.03 0.158,-0.09 l 2.059,-2.987 2.059,2.987 c 0.045,0.06 0.098,0.09 0.158,0.09 h 2.783 c 0.06,0 0.09,-0.03 0.09,-0.09 L 10.159,0.113 C 10.159,0.038 10.128,0 10.068,0 H 7.512 C 7.451,0 7.421,0.038 7.421,0.113 L 7.398,11.652 5.023,8.213 2.67,11.652 2.647,0.113 C 2.647,0.038 2.617,0 2.557,0 Z" />
    </g>
  </g>
  <g
    transform="matrix(1.3333330154418945, 0, 0, -1.3333330154418945, 161.9536846694391, 115.55078207529733)"
    id="g136">
    <path id="path138" style="fill:#6bc7f1;fill-opacity:1;fill-rule:nonzero;stroke:none"
      d="M 0,0 H 1.694 L 0.971,4.96 0.865,5.613 0.794,4.96 Z M -2.666,-3.178 -0.477,8.95 c 0.012,0.047 0.041,0.071 0.088,0.071 h 2.56 C 2.218,9.021 2.248,8.997 2.26,8.95 L 4.36,-3.178 C 4.372,-3.237 4.349,-3.267 4.29,-3.267 H 2.33 c -0.047,0 -0.077,0.03 -0.088,0.089 L 2.048,-1.89 h -2.401 l -0.194,-1.288 c -0.012,-0.059 -0.042,-0.089 -0.089,-0.089 h -1.959 c -0.047,0 -0.071,0.03 -0.071,0.089" />
  </g>
  <g
    transform="matrix(1.3333330154418945, 0, 0, -1.3333330154418945, 174.3230257958785, 120.8441157742054)"
    id="g140">
    <path id="path142" style="fill:#6bc7f1;fill-opacity:1;fill-rule:nonzero;stroke:none"
      d="m 0,0 c -0.682,-0.135 -1.338,-0.083 -1.969,0.153 -0.63,0.237 -1.169,0.609 -1.617,1.118 -0.448,0.508 -0.74,1.11 -0.877,1.805 l -0.172,0.871 c -0.012,0.063 0.013,0.101 0.076,0.114 l 2.122,0.418 c 0.05,0.009 0.082,-0.017 0.094,-0.081 L -2.171,3.527 C -2.089,3.11 -1.88,2.781 -1.543,2.539 -1.207,2.297 -0.843,2.215 -0.452,2.292 -0.061,2.369 0.245,2.587 0.463,2.944 0.681,3.302 0.75,3.683 0.67,4.087 0.578,4.555 0.195,4.898 -0.478,5.12 c -0.224,0.074 -0.575,0.189 -1.051,0.344 -0.477,0.155 -0.926,0.303 -1.347,0.443 -0.775,0.268 -1.39,0.674 -1.845,1.221 -0.455,0.547 -0.758,1.205 -0.91,1.976 -0.14,0.707 -0.094,1.375 0.136,2.003 0.23,0.629 0.594,1.164 1.091,1.603 0.497,0.439 1.074,0.724 1.731,0.853 0.67,0.132 1.318,0.085 1.946,-0.138 0.628,-0.224 1.164,-0.584 1.61,-1.08 C 1.328,11.849 1.62,11.254 1.756,10.56 L 2.063,9.006 C 2.073,8.955 2.052,8.925 2.001,8.915 L -0.12,8.497 c -0.05,-0.01 -0.081,0.01 -0.09,0.061 l -0.326,1.549 c -0.087,0.443 -0.297,0.775 -0.629,0.998 -0.333,0.223 -0.689,0.297 -1.067,0.223 -0.392,-0.077 -0.697,-0.292 -0.916,-0.643 -0.22,-0.352 -0.29,-0.73 -0.21,-1.133 0.082,-0.417 0.239,-0.747 0.47,-0.99 C -2.656,8.318 -2.282,8.117 -1.765,7.956 -1.694,7.931 -1.558,7.889 -1.356,7.83 -1.154,7.771 -0.935,7.703 -0.696,7.626 -0.458,7.548 -0.245,7.481 -0.057,7.427 0.131,7.372 0.247,7.336 0.29,7.318 0.991,7.089 1.575,6.755 2.042,6.315 2.508,5.876 2.815,5.284 2.962,4.539 3.104,3.819 3.064,3.139 2.843,2.498 2.622,1.857 2.263,1.314 1.767,0.869 1.271,0.424 0.682,0.134 0,0" />
  </g>
  <g
    transform="matrix(1.3333330154418945, 0, 0, -1.3333330154418945, 180.2510232432105, 119.90677875810071)"
    id="g144">
    <path id="path146" style="fill:#6bc7f1;fill-opacity:1;fill-rule:nonzero;stroke:none"
      d="M 0,0 C -0.047,0 -0.071,0.029 -0.071,0.088 V 10.12 h -2.288 c -0.058,0 -0.088,0.029 -0.088,0.088 l 0.018,1.972 c 0,0.047 0.023,0.07 0.07,0.07 H 4.33 c 0.058,0 0.087,-0.023 0.087,-0.07 v -1.972 c 0,-0.059 -0.023,-0.088 -0.07,-0.088 H 2.042 L 2.059,0.088 C 2.059,0.029 2.035,0 1.988,0 Z" />
  </g>
  <g
    transform="matrix(1.3333330154418945, 0, 0, -1.3333330154418945, 187.21635361379595, 119.95611549763997)"
    id="g148">
    <path id="path150" style="fill:#6bc7f1;fill-opacity:1;fill-rule:nonzero;stroke:none"
      d="m 0,0 c -0.047,0 -0.071,0.029 -0.071,0.089 l 0.018,12.164 c 0,0.048 0.024,0.071 0.071,0.071 h 5.684 c 0.047,0 0.07,-0.029 0.07,-0.089 v -1.982 c 0,-0.048 -0.023,-0.071 -0.07,-0.071 H 2.072 V 7.419 h 3.63 c 0.047,0 0.07,-0.023 0.07,-0.07 L 5.791,5.348 C 5.791,5.301 5.766,5.277 5.719,5.277 H 2.072 V 2.179 h 3.647 c 0.047,0 0.072,-0.031 0.072,-0.089 V 0.071 C 5.791,0.023 5.766,0 5.719,0 Z" />
  </g>
  <g
    transform="matrix(1.3333330154418945, 0, 0, -1.3333330154418945, 199.60567357661785, 110.06677459372442)"
    id="g152">
    <path id="path154" style="fill:#6bc7f1;fill-opacity:1;fill-rule:nonzero;stroke:none"
      d="M 0,0 H 1.521 C 1.888,0 2.212,0.135 2.495,0.406 2.778,0.678 2.92,1.009 2.92,1.397 2.92,1.775 2.781,2.1 2.504,2.371 2.227,2.643 1.899,2.778 1.521,2.778 H 0 Z m -2.089,-7.417 c -0.047,0 -0.071,0.029 -0.071,0.089 l 0.036,12.16 c 0,0.047 0.023,0.07 0.071,0.07 H 1.521 C 2.159,4.902 2.746,4.746 3.283,4.434 3.82,4.12 4.248,3.701 4.566,3.177 4.885,2.651 5.044,2.059 5.044,1.397 5.044,0.961 4.979,0.568 4.85,0.221 4.72,-0.127 4.566,-0.423 4.39,-0.664 4.212,-0.906 4.053,-1.086 3.911,-1.204 4.549,-1.912 4.867,-2.744 4.867,-3.7 l 0.018,-3.628 c 0,-0.06 -0.03,-0.089 -0.089,-0.089 h -2 c -0.047,0 -0.07,0.018 -0.07,0.054 V -3.7 c 0,0.425 -0.151,0.794 -0.452,1.106 -0.3,0.313 -0.67,0.47 -1.106,0.47 H 0 l -0.018,-5.204 c 0,-0.06 -0.024,-0.089 -0.071,-0.089 z" />
  </g>
  <g
    transform="matrix(1.3333330154418945, 0, 0, -1.3333330154418945, 212.17500651735466, 108.48812099875069)"
    id="g156">
    <path id="path158" style="fill:#425caf;fill-opacity:1;fill-rule:nonzero;stroke:none"
      d="M 0,0 H 1.709 C 2.189,0 2.605,0.229 2.958,0.686 3.31,1.143 3.486,1.738 3.486,2.474 3.486,3.059 3.329,3.538 3.014,3.913 2.699,4.287 2.264,4.475 1.709,4.475 L 0,4.452 Z m -2.631,-8.501 c -0.075,0 -0.112,0.037 -0.112,0.112 l 0.045,15.451 c 0,0.059 0.03,0.089 0.09,0.089 h 4.317 c 1.38,0 2.471,-0.42 3.272,-1.259 C 5.783,5.052 6.185,3.913 6.185,2.474 6.185,1.409 5.975,0.486 5.555,-0.293 5.135,-1.072 4.588,-1.672 3.913,-2.092 3.238,-2.512 2.504,-2.722 1.709,-2.722 H 0 v -5.667 c 0,-0.075 -0.037,-0.112 -0.112,-0.112 z" />
  </g>
  <g
    transform="matrix(1.3333330154418945, 0, 0, -1.3333330154418945, 242.76968509540896, 119.76011131260019)"
    id="g160">
    <path id="path162" style="fill:#425caf;fill-opacity:1;fill-rule:nonzero;stroke:none"
      d="m 0,0 c -0.046,0 -0.068,0.028 -0.068,0.086 l 0.017,11.802 c 0,0.057 0.029,0.086 0.086,0.086 h 1.909 c 0.058,0 0.086,-0.029 0.086,-0.086 L 2.014,2.116 h 3.543 c 0.057,0 0.087,-0.028 0.087,-0.086 V 0.086 C 5.644,0.028 5.614,0 5.557,0 Z" />
  </g>
  <g
    transform="matrix(1.3333330154418945, 0, 0, -1.3333330154418945, 238.98965669976317, 115.11745291428814)"
    id="g164">
    <path id="path166" style="fill:#6bc7f1;fill-opacity:1;fill-rule:nonzero;stroke:none"
      d="m 0,0 c -1.205,-1.205 -3.159,-1.206 -4.364,0 -1.205,1.205 -1.205,3.159 0,4.364 1.205,1.205 3.159,1.205 4.364,0 C 1.205,3.159 1.205,1.205 0,0 m -6.169,6.169 c -2.202,-2.202 -2.202,-5.772 0,-7.974 2.202,-2.202 5.773,-2.202 7.974,0 2.202,2.202 2.202,5.772 0,7.974 -2.201,2.202 -5.772,2.202 -7.974,0" />
  </g>
  <g id="g168"
    transform="matrix(1.3333330154418945, 0, 0, -1.3333330154418945, 27.223054763737302, 164.59210135624016)">
    <g id="g170" />
    <g id="g194">
      <g style="opacity:0.5" id="g192" clip-path="url(#clipPath174)">
        <g id="g178" transform="translate(158.8252,37.1061)">
          <path id="path176" style="fill:#ffffff;fill-opacity:1;fill-rule:nonzero;stroke:none"
            d="m 0,0 c -0.474,-0.474 -1.063,-0.762 -1.678,-0.862 l 1.684,-2.154 c 0.654,0.275 1.266,0.679 1.799,1.211 0.533,0.533 0.936,1.145 1.211,1.799 L 0.863,1.678 C 0.762,1.063 0.474,0.474 0,0" />
        </g>
        <g id="g182" transform="translate(151.4453,41.4762)">
          <path id="path180" style="fill:#ffffff;fill-opacity:1;fill-rule:nonzero;stroke:none"
            d="m 0,0 2.153,-1.684 c 0.101,0.615 0.389,1.205 0.863,1.678 0.473,0.474 1.063,0.762 1.677,0.862 L 3.01,3.01 C 2.355,2.735 1.743,2.332 1.211,1.799 0.679,1.267 0.274,0.654 0,0" />
        </g>
        <g id="g186" transform="translate(151.4453,37.1002)">
          <path id="path184" style="fill:#ffffff;fill-opacity:1;fill-rule:nonzero;stroke:none"
            d="M 0,0 C 0.274,-0.654 0.679,-1.267 1.211,-1.799 1.743,-2.331 2.355,-2.735 3.01,-3.01 l 1.683,2.153 C 4.079,-0.756 3.489,-0.469 3.016,0.006 2.541,0.479 2.254,1.069 2.152,1.684 Z" />
        </g>
        <g id="g190" transform="translate(158.8311,44.486)">
          <path id="path188" style="fill:#ffffff;fill-opacity:1;fill-rule:nonzero;stroke:none"
            d="m 0,0 -1.684,-2.153 c 0.615,-0.101 1.205,-0.389 1.678,-0.863 0.474,-0.473 0.762,-1.063 0.863,-1.677 L 3.01,-3.01 C 2.735,-2.355 2.332,-1.743 1.799,-1.211 1.267,-0.678 0.654,-0.274 0,0" />
        </g>
      </g>
    </g>
  </g>
  <g id="g196"
    transform="matrix(1.3333330154418945, 0, 0, -1.3333330154418945, 27.223054763737302, 164.59210135624016)">
    <g id="g198" />
    <g id="g210">
      <g style="opacity:0.10000598" id="g208" clip-path="url(#clipPath202)">
        <g id="g206" transform="translate(158.8252,37.1061)">
          <path id="path204" style="fill:#ffffff;fill-opacity:1;fill-rule:nonzero;stroke:none"
            d="m 0,0 c -1.205,-1.205 -3.159,-1.206 -4.364,0 -1.205,1.205 -1.205,3.159 0,4.364 1.205,1.205 3.159,1.205 4.364,0 C 1.205,3.159 1.205,1.205 0,0 m -5.062,5.063 c -1.592,-1.591 -1.592,-4.17 0,-5.761 1.59,-1.592 4.169,-1.592 5.761,0 1.591,1.591 1.591,4.17 0,5.761 -1.592,1.591 -4.171,1.591 -5.761,0" />
        </g>
      </g>
    </g>
  </g>
</svg>