<?xml version="1.0" encoding="utf-8"?>
<svg xmlns="http://www.w3.org/2000/svg" viewBox="439.4203 236.1654 15.036 15.036" width="15.036px"
    height="15.036px">
    <defs>
        <clipPath id="clipPath174" clipPathUnits="userSpaceOnUse">
            <path id="path172" d="m 151.445,44.4861 h 10.396 V 34.0905 h -10.396 z" />
        </clipPath>
        <clipPath id="clipPath202" clipPathUnits="userSpaceOnUse">
            <path id="path200" d="m 152.569,43.3625 h 8.148 v -8.1484 h -8.148 z" />
        </clipPath>
    </defs>
    <g
        transform="matrix(1.3333330154418945, 0, 0, -1.3333330154418945, 449.84765625, 246.5927734375)"
        id="g164">
        <path id="path166" style="fill:#6bc7f1;fill-opacity:1;fill-rule:nonzero;stroke:none"
            d="m 0,0 c -1.205,-1.205 -3.159,-1.206 -4.364,0 -1.205,1.205 -1.205,3.159 0,4.364 1.205,1.205 3.159,1.205 4.364,0 C 1.205,3.159 1.205,1.205 0,0 m -6.169,6.169 c -2.202,-2.202 -2.202,-5.772 0,-7.974 2.202,-2.202 5.773,-2.202 7.974,0 2.202,2.202 2.202,5.772 0,7.974 -2.201,2.202 -5.772,2.202 -7.974,0" />
    </g>
    <g id="g168"
        transform="matrix(1.3333330154418945, 0, 0, -1.3333330154418945, 238.08105468749997, 296.06744384765625)">
        <g id="g170" />
        <g id="g194">
            <g style="opacity:0.5" id="g192" clip-path="url(#clipPath174)">
                <g id="g178" transform="translate(158.8252,37.1061)">
                    <path id="path176"
                        style="fill:#ffffff;fill-opacity:1;fill-rule:nonzero;stroke:none"
                        d="m 0,0 c -0.474,-0.474 -1.063,-0.762 -1.678,-0.862 l 1.684,-2.154 c 0.654,0.275 1.266,0.679 1.799,1.211 0.533,0.533 0.936,1.145 1.211,1.799 L 0.863,1.678 C 0.762,1.063 0.474,0.474 0,0" />
                </g>
                <g id="g182" transform="translate(151.4453,41.4762)">
                    <path id="path180"
                        style="fill:#ffffff;fill-opacity:1;fill-rule:nonzero;stroke:none"
                        d="m 0,0 2.153,-1.684 c 0.101,0.615 0.389,1.205 0.863,1.678 0.473,0.474 1.063,0.762 1.677,0.862 L 3.01,3.01 C 2.355,2.735 1.743,2.332 1.211,1.799 0.679,1.267 0.274,0.654 0,0" />
                </g>
                <g id="g186" transform="translate(151.4453,37.1002)">
                    <path id="path184"
                        style="fill:#ffffff;fill-opacity:1;fill-rule:nonzero;stroke:none"
                        d="M 0,0 C 0.274,-0.654 0.679,-1.267 1.211,-1.799 1.743,-2.331 2.355,-2.735 3.01,-3.01 l 1.683,2.153 C 4.079,-0.756 3.489,-0.469 3.016,0.006 2.541,0.479 2.254,1.069 2.152,1.684 Z" />
                </g>
                <g id="g190" transform="translate(158.8311,44.486)">
                    <path id="path188"
                        style="fill:#ffffff;fill-opacity:1;fill-rule:nonzero;stroke:none"
                        d="m 0,0 -1.684,-2.153 c 0.615,-0.101 1.205,-0.389 1.678,-0.863 0.474,-0.473 0.762,-1.063 0.863,-1.677 L 3.01,-3.01 C 2.735,-2.355 2.332,-1.743 1.799,-1.211 1.267,-0.678 0.654,-0.274 0,0" />
                </g>
            </g>
        </g>
    </g>
    <g id="g196"
        transform="matrix(1.3333330154418945, 0, 0, -1.3333330154418945, 238.08105468749997, 296.06744384765625)">
        <g id="g198" />
        <g id="g210">
            <g style="opacity:0.10000598" id="g208" clip-path="url(#clipPath202)">
                <g id="g206" transform="translate(158.8252,37.1061)">
                    <path id="path204"
                        style="fill:#ffffff;fill-opacity:1;fill-rule:nonzero;stroke:none"
                        d="m 0,0 c -1.205,-1.205 -3.159,-1.206 -4.364,0 -1.205,1.205 -1.205,3.159 0,4.364 1.205,1.205 3.159,1.205 4.364,0 C 1.205,3.159 1.205,1.205 0,0 m -5.062,5.063 c -1.592,-1.591 -1.592,-4.17 0,-5.761 1.59,-1.592 4.169,-1.592 5.761,0 1.591,1.591 1.591,4.17 0,5.761 -1.592,1.591 -4.171,1.591 -5.761,0" />
                </g>
            </g>
        </g>
    </g>
</svg>